<svg width="48" height="48" viewBox="0 0 48 48" fill="none" xmlns="http://www.w3.org/2000/svg">
  <defs>
    <linearGradient id="bg" x1="0" y1="0" x2="48" y2="48">
      <stop offset="0" stop-color="#F0855F"/>
      <stop offset="1" stop-color="#D6553B"/>
    </linearGradient>
    <linearGradient id="sky" x1="10" y1="12" x2="10" y2="30">
      <stop offset="0" stop-color="#FFE6C7"/>
      <stop offset="1" stop-color="#FFC79A"/>
    </linearGradient>
    <clipPath id="c"><circle cx="24" cy="20" r="12.5"/></clipPath>
  </defs>
  <path d="M24 3c9.94 0 18 7.61 18 17 0 8.3-6.6 15.9-16.2 24.4a2.7 2.7 0 0 1-3.6 0C12.6 35.9 6 28.3 6 20 6 10.61 14.06 3 24 3Z" fill="url(#bg)"/>
  <g clip-path="url(#c)">
    <rect x="11.5" y="7.5" width="25" height="25" fill="url(#sky)"/>
    <circle cx="30.5" cy="15" r="3.4" fill="#FFF4E4"/>
    <path d="M11 26 L20 17 L27 24 L33 19 L37 24 L37 33 L11 33 Z" fill="#E07B54"/>
    <path d="M11 33 L18 23.5 L26 31 L31 27 L37 32.5 L37 34 L11 34 Z" fill="#B23F27"/>
  </g>
  <circle cx="24" cy="20" r="3" fill="#FFFFFF"/>
  <circle cx="24" cy="20" r="1.4" fill="#D6553B"/>
</svg>
